<?xml version="1.0" encoding="us-ascii" standalone="no"?><svg xmlns="http://www.w3.org/2000/svg" xmlns:xlink="http://www.w3.org/1999/xlink" contentStyleType="text/css" height="835px" preserveAspectRatio="none" style="width:1601px;height:835px;background:#FFFFFF;" version="1.1" viewBox="0 0 1601 835" width="1601px" zoomAndPan="magnify"><defs/><g><rect fill="#709E53" height="38.3105" style="stroke:#181818;stroke-width:1.0;" width="10" x="59.5" y="83.1094"/><rect fill="#709E53" height="38.3105" style="stroke:#181818;stroke-width:1.0;" width="10" x="59.5" y="166.041"/><rect fill="#709E53" height="279.1055" style="stroke:#181818;stroke-width:1.0;" width="10" x="59.5" y="248.9727"/><rect fill="#709E53" height="209.1738" style="stroke:#181818;stroke-width:1.0;" width="10" x="59.5" y="572.6992"/><rect fill="#709E53" height="38.3105" style="stroke:#181818;stroke-width:1.0;" width="10" x="321.5" y="83.1094"/><rect fill="#709E53" height="38.3105" style="stroke:#181818;stroke-width:1.0;" width="10" x="443" y="166.041"/><rect fill="#709E53" height="279.1055" style="stroke:#181818;stroke-width:1.0;" width="10" x="520" y="248.9727"/><rect fill="#386111" height="14" style="stroke:#181818;stroke-width:1.0;" width="10" x="525" y="293.5938"/><rect fill="#386111" height="58.6211" style="stroke:#181818;stroke-width:1.0;" width="10" x="525" y="352.2148"/><rect fill="#386111" height="58.6211" style="stroke:#181818;stroke-width:1.0;" width="10" x="525" y="455.457"/><rect fill="#386111" height="14" style="stroke:#181818;stroke-width:1.0;" width="10" x="887" y="293.5938"/><rect fill="#386111" height="58.6211" style="stroke:#181818;stroke-width:1.0;" width="10" x="887" y="352.2148"/><rect fill="#386111" height="58.6211" style="stroke:#181818;stroke-width:1.0;" width="10" x="887" y="455.457"/><rect fill="#C4EB72" height="14" style="stroke:#181818;stroke-width:1.0;" width="10" x="887" y="641.6309"/><rect fill="#6BBF10" height="14" style="stroke:#181818;stroke-width:1.0;" width="10" x="887" y="731.5625"/><rect fill="#709E53" height="209.1738" style="stroke:#181818;stroke-width:1.0;" width="10" x="1087" y="572.6992"/><rect fill="#C4EB72" height="14" style="stroke:#181818;stroke-width:1.0;" width="10" x="1092" y="641.6309"/><rect fill="#6BBF10" height="14" style="stroke:#181818;stroke-width:1.0;" width="10" x="1092" y="731.5625"/><rect fill="none" height="75.9316" style="stroke:#000000;stroke-width:1.5;" width="773" x="820.5" y="587.6992"/><rect fill="none" height="75.9316" style="stroke:#000000;stroke-width:1.5;" width="775" x="820.5" y="677.6309"/><line style="stroke:#181818;stroke-width:0.5;stroke-dasharray:5.0,5.0;" x1="64" x2="64" y1="36.4883" y2="799.873"/><line style="stroke:#181818;stroke-width:0.5;stroke-dasharray:5.0,5.0;" x1="326.5" x2="326.5" y1="36.4883" y2="799.873"/><line style="stroke:#181818;stroke-width:0.5;stroke-dasharray:5.0,5.0;" x1="447.5" x2="447.5" y1="36.4883" y2="799.873"/><line style="stroke:#181818;stroke-width:0.5;stroke-dasharray:5.0,5.0;" x1="524.5" x2="524.5" y1="36.4883" y2="799.873"/><line style="stroke:#181818;stroke-width:0.5;stroke-dasharray:5.0,5.0;" x1="891.5" x2="891.5" y1="36.4883" y2="799.873"/><line style="stroke:#181818;stroke-width:0.5;stroke-dasharray:5.0,5.0;" x1="1092" x2="1092" y1="36.4883" y2="799.873"/><rect fill="#E2E2F0" height="30.4883" rx="2.5" ry="2.5" style="stroke:#181818;stroke-width:0.5;" width="69" x="30" y="5"/><text fill="#000000" font-family="sans-serif" font-size="14" lengthAdjust="spacing" textLength="55" x="37" y="25.5352">wapi_v0</text><rect fill="#E2E2F0" height="30.4883" rx="2.5" ry="2.5" style="stroke:#181818;stroke-width:0.5;" width="69" x="30" y="798.873"/><text fill="#000000" font-family="sans-serif" font-size="14" lengthAdjust="spacing" textLength="55" x="37" y="819.4082">wapi_v0</text><rect fill="#E2E2F0" height="30.4883" rx="2.5" ry="2.5" style="stroke:#181818;stroke-width:0.5;" width="152" x="250.5" y="5"/><text fill="#000000" font-family="sans-serif" font-size="14" lengthAdjust="spacing" textLength="138" x="257.5" y="25.5352">token_authenticator</text><rect fill="#E2E2F0" height="30.4883" rx="2.5" ry="2.5" style="stroke:#181818;stroke-width:0.5;" width="152" x="250.5" y="798.873"/><text fill="#000000" font-family="sans-serif" font-size="14" lengthAdjust="spacing" textLength="138" x="257.5" y="819.4082">token_authenticator</text><rect fill="#E2E2F0" height="30.4883" rx="2.5" ry="2.5" style="stroke:#181818;stroke-width:0.5;" width="71" x="412.5" y="5"/><text fill="#000000" font-family="sans-serif" font-size="14" lengthAdjust="spacing" textLength="57" x="419.5" y="25.5352">bouncer</text><rect fill="#E2E2F0" height="30.4883" rx="2.5" ry="2.5" style="stroke:#181818;stroke-width:0.5;" width="71" x="412.5" y="798.873"/><text fill="#000000" font-family="sans-serif" font-size="14" lengthAdjust="spacing" textLength="57" x="419.5" y="819.4082">bouncer</text><rect fill="#E2E2F0" height="30.4883" rx="2.5" ry="2.5" style="stroke:#181818;stroke-width:0.5;" width="63" x="493.5" y="5"/><text fill="#000000" font-family="sans-serif" font-size="14" lengthAdjust="spacing" textLength="49" x="500.5" y="25.5352">bender</text><rect fill="#E2E2F0" height="30.4883" rx="2.5" ry="2.5" style="stroke:#181818;stroke-width:0.5;" width="63" x="493.5" y="798.873"/><text fill="#000000" font-family="sans-serif" font-size="14" lengthAdjust="spacing" textLength="49" x="500.5" y="819.4082">bender</text><rect fill="#E2E2F0" height="30.4883" rx="2.5" ry="2.5" style="stroke:#181818;stroke-width:0.5;" width="123" x="830.5" y="5"/><text fill="#000000" font-family="sans-serif" font-size="14" lengthAdjust="spacing" textLength="109" x="837.5" y="25.5352">machinegun_ha</text><rect fill="#E2E2F0" height="30.4883" rx="2.5" ry="2.5" style="stroke:#181818;stroke-width:0.5;" width="123" x="830.5" y="798.873"/><text fill="#000000" font-family="sans-serif" font-size="14" lengthAdjust="spacing" textLength="109" x="837.5" y="819.4082">machinegun_ha</text><rect fill="#E2E2F0" height="30.4883" rx="2.5" ry="2.5" style="stroke:#181818;stroke-width:0.5;" width="146" x="1019" y="5"/><text fill="#000000" font-family="sans-serif" font-size="14" lengthAdjust="spacing" textLength="132" x="1026" y="25.5352">party_management</text><rect fill="#E2E2F0" height="30.4883" rx="2.5" ry="2.5" style="stroke:#181818;stroke-width:0.5;" width="146" x="1019" y="798.873"/><text fill="#000000" font-family="sans-serif" font-size="14" lengthAdjust="spacing" textLength="132" x="1026" y="819.4082">party_management</text><rect fill="#709E53" height="38.3105" style="stroke:#181818;stroke-width:1.0;" width="10" x="59.5" y="83.1094"/><rect fill="#709E53" height="38.3105" style="stroke:#181818;stroke-width:1.0;" width="10" x="59.5" y="166.041"/><rect fill="#709E53" height="279.1055" style="stroke:#181818;stroke-width:1.0;" width="10" x="59.5" y="248.9727"/><rect fill="#709E53" height="209.1738" style="stroke:#181818;stroke-width:1.0;" width="10" x="59.5" y="572.6992"/><rect fill="#709E53" height="38.3105" style="stroke:#181818;stroke-width:1.0;" width="10" x="321.5" y="83.1094"/><rect fill="#709E53" height="38.3105" style="stroke:#181818;stroke-width:1.0;" width="10" x="443" y="166.041"/><rect fill="#709E53" height="279.1055" style="stroke:#181818;stroke-width:1.0;" width="10" x="520" y="248.9727"/><rect fill="#386111" height="14" style="stroke:#181818;stroke-width:1.0;" width="10" x="525" y="293.5938"/><rect fill="#386111" height="58.6211" style="stroke:#181818;stroke-width:1.0;" width="10" x="525" y="352.2148"/><rect fill="#386111" height="58.6211" style="stroke:#181818;stroke-width:1.0;" width="10" x="525" y="455.457"/><rect fill="#386111" height="14" style="stroke:#181818;stroke-width:1.0;" width="10" x="887" y="293.5938"/><rect fill="#386111" height="58.6211" style="stroke:#181818;stroke-width:1.0;" width="10" x="887" y="352.2148"/><rect fill="#386111" height="58.6211" style="stroke:#181818;stroke-width:1.0;" width="10" x="887" y="455.457"/><rect fill="#C4EB72" height="14" style="stroke:#181818;stroke-width:1.0;" width="10" x="887" y="641.6309"/><rect fill="#6BBF10" height="14" style="stroke:#181818;stroke-width:1.0;" width="10" x="887" y="731.5625"/><rect fill="#709E53" height="209.1738" style="stroke:#181818;stroke-width:1.0;" width="10" x="1087" y="572.6992"/><rect fill="#C4EB72" height="14" style="stroke:#181818;stroke-width:1.0;" width="10" x="1092" y="641.6309"/><rect fill="#6BBF10" height="14" style="stroke:#181818;stroke-width:1.0;" width="10" x="1092" y="731.5625"/><polygon fill="#DEEC92" points="309.5,79.1094,319.5,83.1094,309.5,87.1094,313.5,83.1094" style="stroke:#DEEC92;stroke-width:1.0;"/><line style="stroke:#DEEC92;stroke-width:1.0;" x1="69.5" x2="315.5" y1="83.1094" y2="83.1094"/><text fill="#000000" font-family="sans-serif" font-size="13" lengthAdjust="spacing" textLength="4" x="76.5" y="63.0566">&#160;</text><text fill="#000000" font-family="sans-serif" font-size="13" font-weight="bold" lengthAdjust="spacing" textLength="135" x="76.5" y="78.3672">TokenAuthenticator</text><text fill="#000000" font-family="sans-serif" font-size="13" lengthAdjust="spacing" textLength="8" x="211.5" y="78.3672">::</text><text fill="#000000" font-family="sans-serif" font-size="13" font-weight="bold" lengthAdjust="spacing" textLength="87" x="219.5" y="78.3672">Authenticate</text><text fill="#000000" font-family="sans-serif" font-size="13" lengthAdjust="spacing" textLength="8" x="306.5" y="78.3672">()</text><polygon fill="#DEEC92" points="75.5,117.4199,65.5,121.4199,75.5,125.4199,71.5,121.4199" style="stroke:#DEEC92;stroke-width:1.0;"/><line style="stroke:#DEEC92;stroke-width:1.0;stroke-dasharray:2.0,2.0;" x1="69.5" x2="325.5" y1="121.4199" y2="121.4199"/><polygon fill="#E00D21" points="431,162.041,441,166.041,431,170.041,435,166.041" style="stroke:#E00D21;stroke-width:1.0;"/><line style="stroke:#E00D21;stroke-width:1.0;" x1="69.5" x2="437" y1="166.041" y2="166.041"/><text fill="#000000" font-family="sans-serif" font-size="13" lengthAdjust="spacing" textLength="4" x="76.5" y="145.9883">&#160;</text><text fill="#000000" font-family="sans-serif" font-size="13" font-weight="bold" lengthAdjust="spacing" textLength="48" x="76.5" y="161.2988">Arbiter</text><text fill="#000000" font-family="sans-serif" font-size="13" lengthAdjust="spacing" textLength="8" x="124.5" y="161.2988">::</text><text fill="#000000" font-family="sans-serif" font-size="13" font-weight="bold" lengthAdjust="spacing" textLength="40" x="132.5" y="161.2988">Judge</text><text fill="#000000" font-family="sans-serif" font-size="13" lengthAdjust="spacing" textLength="8" x="172.5" y="161.2988">()</text><polygon fill="#E00D21" points="75.5,200.3516,65.5,204.3516,75.5,208.3516,71.5,204.3516" style="stroke:#E00D21;stroke-width:1.0;"/><line style="stroke:#E00D21;stroke-width:1.0;stroke-dasharray:2.0,2.0;" x1="69.5" x2="447" y1="204.3516" y2="204.3516"/><polygon fill="#386111" points="508,244.9727,518,248.9727,508,252.9727,512,248.9727" style="stroke:#386111;stroke-width:1.0;"/><line style="stroke:#386111;stroke-width:1.0;" x1="69.5" x2="514" y1="248.9727" y2="248.9727"/><text fill="#000000" font-family="sans-serif" font-size="13" lengthAdjust="spacing" textLength="4" x="76.5" y="228.9199">&#160;</text><text fill="#000000" font-family="sans-serif" font-size="13" font-weight="bold" lengthAdjust="spacing" textLength="48" x="76.5" y="244.2305">Bender</text><text fill="#000000" font-family="sans-serif" font-size="13" lengthAdjust="spacing" textLength="8" x="124.5" y="244.2305">::</text><text fill="#000000" font-family="sans-serif" font-size="13" font-weight="bold" lengthAdjust="spacing" textLength="76" x="132.5" y="244.2305">GenerateID</text><text fill="#000000" font-family="sans-serif" font-size="13" lengthAdjust="spacing" textLength="8" x="208.5" y="244.2305">()</text><polygon fill="#E065C3" points="875,289.5938,885,293.5938,875,297.5938,879,293.5938" style="stroke:#E065C3;stroke-width:1.0;"/><line style="stroke:#E065C3;stroke-width:1.0;" x1="535" x2="881" y1="293.5938" y2="293.5938"/><text fill="#000000" font-family="sans-serif" font-size="13" lengthAdjust="spacing" textLength="4" x="542" y="273.541">&#160;</text><text fill="#000000" font-family="sans-serif" font-size="13" font-weight="bold" lengthAdjust="spacing" textLength="75" x="542" y="288.8516">Automaton</text><text fill="#000000" font-family="sans-serif" font-size="13" lengthAdjust="spacing" textLength="8" x="617" y="288.8516">::</text><text fill="#000000" font-family="sans-serif" font-size="13" font-weight="bold" lengthAdjust="spacing" textLength="31" x="625" y="288.8516">Start</text><text fill="#000000" font-family="sans-serif" font-size="13" lengthAdjust="spacing" textLength="8" x="656" y="288.8516">()</text><polygon fill="#E065C3" points="541,303.5938,531,307.5938,541,311.5938,537,307.5938" style="stroke:#E065C3;stroke-width:1.0;"/><line style="stroke:#E065C3;stroke-width:1.0;stroke-dasharray:2.0,2.0;" x1="535" x2="891" y1="307.5938" y2="307.5938"/><polygon fill="#34EFFB" points="875,348.2148,885,352.2148,875,356.2148,879,352.2148" style="stroke:#34EFFB;stroke-width:1.0;"/><line style="stroke:#34EFFB;stroke-width:1.0;" x1="535" x2="881" y1="352.2148" y2="352.2148"/><text fill="#000000" font-family="sans-serif" font-size="13" lengthAdjust="spacing" textLength="4" x="542" y="332.1621">&#160;</text><text fill="#000000" font-family="sans-serif" font-size="13" font-weight="bold" lengthAdjust="spacing" textLength="75" x="542" y="347.4727">Automaton</text><text fill="#000000" font-family="sans-serif" font-size="13" lengthAdjust="spacing" textLength="8" x="617" y="347.4727">::</text><text fill="#000000" font-family="sans-serif" font-size="13" font-weight="bold" lengthAdjust="spacing" textLength="25" x="625" y="347.4727">Call</text><text fill="#000000" font-family="sans-serif" font-size="13" lengthAdjust="spacing" textLength="8" x="650" y="347.4727">()</text><ellipse cx="534.5" cy="396.0859" fill="none" rx="4" ry="4" style="stroke:#F95F2D;stroke-width:1.5;"/><line style="stroke:#F95F2D;stroke-width:1.0;" x1="541.5" x2="551.5" y1="396.8359" y2="392.8359"/><line style="stroke:#F95F2D;stroke-width:1.0;" x1="541.5" x2="551.5" y1="396.8359" y2="400.8359"/><line style="stroke:#F95F2D;stroke-width:1.0;" x1="535" x2="886" y1="396.8359" y2="396.8359"/><text fill="#000000" font-family="sans-serif" font-size="13" font-weight="bold" lengthAdjust="spacing" textLength="65" x="552" y="376.7832">Processor</text><text fill="#000000" font-family="sans-serif" font-size="13" lengthAdjust="spacing" textLength="8" x="617" y="376.7832">::</text><text fill="#000000" font-family="sans-serif" font-size="13" font-weight="bold" lengthAdjust="spacing" textLength="76" x="625" y="376.7832">ProcessCall</text><text fill="#000000" font-family="sans-serif" font-size="13" lengthAdjust="spacing" textLength="8" x="701" y="376.7832">()</text><text fill="#000000" font-family="sans-serif" font-size="13" lengthAdjust="spacing" textLength="327" x="552" y="392.0938">http://bender:8022/v1/stateproc/bender_sequence</text><polygon fill="#34EFFB" points="541,406.8359,531,410.8359,541,414.8359,537,410.8359" style="stroke:#34EFFB;stroke-width:1.0;"/><line style="stroke:#34EFFB;stroke-width:1.0;stroke-dasharray:2.0,2.0;" x1="535" x2="891" y1="410.8359" y2="410.8359"/><polygon fill="#E59E39" points="875,451.457,885,455.457,875,459.457,879,455.457" style="stroke:#E59E39;stroke-width:1.0;"/><line style="stroke:#E59E39;stroke-width:1.0;" x1="535" x2="881" y1="455.457" y2="455.457"/><text fill="#000000" font-family="sans-serif" font-size="13" lengthAdjust="spacing" textLength="4" x="542" y="435.4043">&#160;</text><text fill="#000000" font-family="sans-serif" font-size="13" font-weight="bold" lengthAdjust="spacing" textLength="75" x="542" y="450.7148">Automaton</text><text fill="#000000" font-family="sans-serif" font-size="13" lengthAdjust="spacing" textLength="8" x="617" y="450.7148">::</text><text fill="#000000" font-family="sans-serif" font-size="13" font-weight="bold" lengthAdjust="spacing" textLength="31" x="625" y="450.7148">Start</text><text fill="#000000" font-family="sans-serif" font-size="13" lengthAdjust="spacing" textLength="8" x="656" y="450.7148">()</text><ellipse cx="534.5" cy="499.3281" fill="none" rx="4" ry="4" style="stroke:#0D1F3B;stroke-width:1.5;"/><line style="stroke:#0D1F3B;stroke-width:1.0;" x1="541.5" x2="551.5" y1="500.0781" y2="496.0781"/><line style="stroke:#0D1F3B;stroke-width:1.0;" x1="541.5" x2="551.5" y1="500.0781" y2="504.0781"/><line style="stroke:#0D1F3B;stroke-width:1.0;" x1="535" x2="886" y1="500.0781" y2="500.0781"/><text fill="#000000" font-family="sans-serif" font-size="13" font-weight="bold" lengthAdjust="spacing" textLength="65" x="552" y="480.0254">Processor</text><text fill="#000000" font-family="sans-serif" font-size="13" lengthAdjust="spacing" textLength="8" x="617" y="480.0254">::</text><text fill="#000000" font-family="sans-serif" font-size="13" font-weight="bold" lengthAdjust="spacing" textLength="92" x="625" y="480.0254">ProcessSignal</text><text fill="#000000" font-family="sans-serif" font-size="13" lengthAdjust="spacing" textLength="8" x="717" y="480.0254">()</text><text fill="#000000" font-family="sans-serif" font-size="13" lengthAdjust="spacing" textLength="328" x="552" y="495.3359">http://bender:8022/v1/stateproc/bender_generator</text><polygon fill="#E59E39" points="541,510.0781,531,514.0781,541,518.0781,537,514.0781" style="stroke:#E59E39;stroke-width:1.0;"/><line style="stroke:#E59E39;stroke-width:1.0;stroke-dasharray:2.0,2.0;" x1="535" x2="891" y1="514.0781" y2="514.0781"/><polygon fill="#386111" points="75.5,524.0781,65.5,528.0781,75.5,532.0781,71.5,528.0781" style="stroke:#386111;stroke-width:1.0;"/><line style="stroke:#386111;stroke-width:1.0;stroke-dasharray:2.0,2.0;" x1="69.5" x2="524" y1="528.0781" y2="528.0781"/><polygon fill="#EB7E11" points="1075,568.6992,1085,572.6992,1075,576.6992,1079,572.6992" style="stroke:#EB7E11;stroke-width:1.0;"/><line style="stroke:#EB7E11;stroke-width:1.0;" x1="69.5" x2="1081" y1="572.6992" y2="572.6992"/><text fill="#000000" font-family="sans-serif" font-size="13" lengthAdjust="spacing" textLength="4" x="76.5" y="552.6465">&#160;</text><text fill="#000000" font-family="sans-serif" font-size="13" font-weight="bold" lengthAdjust="spacing" textLength="89" x="76.5" y="567.957">Management</text><text fill="#000000" font-family="sans-serif" font-size="13" lengthAdjust="spacing" textLength="8" x="165.5" y="567.957">::</text><text fill="#000000" font-family="sans-serif" font-size="13" font-weight="bold" lengthAdjust="spacing" textLength="44" x="173.5" y="567.957">Create</text><text fill="#000000" font-family="sans-serif" font-size="13" lengthAdjust="spacing" textLength="8" x="217.5" y="567.957">()</text><path d="M820.5,587.6992 L1237.5,587.6992 L1237.5,595.0098 L1227.5,605.0098 L820.5,605.0098 L820.5,587.6992 " fill="#EEEEEE" style="stroke:#000000;stroke-width:1.5;"/><rect fill="none" height="75.9316" style="stroke:#000000;stroke-width:1.5;" width="773" x="820.5" y="587.6992"/><text fill="#000000" font-family="sans-serif" font-size="13" font-weight="bold" lengthAdjust="spacing" textLength="368" x="835.5" y="601.2676">PartyManagement::GetRevision() @party_management</text><text fill="#000000" font-family="sans-serif" font-size="11" font-weight="bold" lengthAdjust="spacing" textLength="336" x="1252.5" y="600.334">[http://party-management:8022/v1/processing/partymgmt]</text><polygon fill="#6A567A" points="908,637.6309,898,641.6309,908,645.6309,904,641.6309" style="stroke:#6A567A;stroke-width:1.0;"/><line style="stroke:#6A567A;stroke-width:1.0;" x1="902" x2="1091" y1="641.6309" y2="641.6309"/><text fill="#000000" font-family="sans-serif" font-size="13" lengthAdjust="spacing" textLength="4" x="914" y="621.5781">&#160;</text><text fill="#000000" font-family="sans-serif" font-size="13" font-weight="bold" lengthAdjust="spacing" textLength="75" x="914" y="636.8887">Automaton</text><text fill="#000000" font-family="sans-serif" font-size="13" lengthAdjust="spacing" textLength="8" x="989" y="636.8887">::</text><text fill="#000000" font-family="sans-serif" font-size="13" font-weight="bold" lengthAdjust="spacing" textLength="80" x="997" y="636.8887">GetMachine</text><text fill="#000000" font-family="sans-serif" font-size="13" lengthAdjust="spacing" textLength="8" x="1077" y="636.8887">()</text><polygon fill="#6A567A" points="1075,651.6309,1085,655.6309,1075,659.6309,1079,655.6309" style="stroke:#6A567A;stroke-width:1.0;"/><line style="stroke:#6A567A;stroke-width:1.0;stroke-dasharray:2.0,2.0;" x1="892" x2="1081" y1="655.6309" y2="655.6309"/><path d="M820.5,677.6309 L1239.5,677.6309 L1239.5,684.9414 L1229.5,694.9414 L820.5,694.9414 L820.5,677.6309 " fill="#EEEEEE" style="stroke:#000000;stroke-width:1.5;"/><rect fill="none" height="75.9316" style="stroke:#000000;stroke-width:1.5;" width="775" x="820.5" y="677.6309"/><text fill="#000000" font-family="sans-serif" font-size="13" font-weight="bold" lengthAdjust="spacing" textLength="370" x="835.5" y="691.1992">PartyManagement::CreateClaim() @party_management</text><text fill="#000000" font-family="sans-serif" font-size="11" font-weight="bold" lengthAdjust="spacing" textLength="336" x="1254.5" y="690.2656">[http://party-management:8022/v1/processing/partymgmt]</text><polygon fill="#1AF17C" points="908,727.5625,898,731.5625,908,735.5625,904,731.5625" style="stroke:#1AF17C;stroke-width:1.0;"/><line style="stroke:#1AF17C;stroke-width:1.0;" x1="902" x2="1091" y1="731.5625" y2="731.5625"/><text fill="#000000" font-family="sans-serif" font-size="13" lengthAdjust="spacing" textLength="4" x="914" y="711.5098">&#160;</text><text fill="#000000" font-family="sans-serif" font-size="13" font-weight="bold" lengthAdjust="spacing" textLength="75" x="914" y="726.8203">Automaton</text><text fill="#000000" font-family="sans-serif" font-size="13" lengthAdjust="spacing" textLength="8" x="989" y="726.8203">::</text><text fill="#000000" font-family="sans-serif" font-size="13" font-weight="bold" lengthAdjust="spacing" textLength="25" x="997" y="726.8203">Call</text><text fill="#000000" font-family="sans-serif" font-size="13" lengthAdjust="spacing" textLength="8" x="1022" y="726.8203">()</text><polygon fill="#1AF17C" points="1075,741.5625,1085,745.5625,1075,749.5625,1079,745.5625" style="stroke:#1AF17C;stroke-width:1.0;"/><line style="stroke:#1AF17C;stroke-width:1.0;stroke-dasharray:2.0,2.0;" x1="892" x2="1081" y1="745.5625" y2="745.5625"/><polygon fill="#EB7E11" points="75.5,777.873,65.5,781.873,75.5,785.873,71.5,781.873" style="stroke:#EB7E11;stroke-width:1.0;"/><line style="stroke:#EB7E11;stroke-width:1.0;stroke-dasharray:2.0,2.0;" x1="69.5" x2="1091" y1="781.873" y2="781.873"/><text fill="#000000" font-family="sans-serif" font-size="13" font-style="italic" font-weight="bold" lengthAdjust="spacing" textLength="57" x="81.5" y="777.1309">! WARN !</text><!--SRC=[nLNRRfj047tdAuZyaZmWRh4T4B8A6A9MIXKbbVhWM6Xjh_0gPg5u8UhVTs6NkvtOZQi-CZDxPiwP2syWGK6kYD9YDFSyrz2MCv74hn0782DRY0bQ0nAdflY2hTNiH-6nsmvBNirCaxfQLbWOhsy4i2Oefv_Y6qyocYg6DzORnu5CTL2OnbaY3ZEQPZlLzOtuXQ6yGfZ0DCWrSR4b935bkRHBp2xbcdcdQ9gSQt8dtrAeghCQ3QJ36WWR-5xfRJS7hS4fjgSeSqsb-gxY3AzXfQcThX21ZP3Viaruke8SgwSQnpJD4gpGg8ghjAbgO9geCc0lkchmYgMcuZP5Rlo0jNutKTMIDSIRchHJVjISxo66AGNuEZ-TU8bGs_bdMVHaxEeqOGJMMuHXcE5W2ognCn97j5UuJlrCG4hwMIjmLdnZxq3MRXvjDScbVlAsI1rNHz0IfqL5l_LytpcPYWjskuimYIrhCVADiQ_DXrHeeiSqNiFzlhNztD9Ky8AhGMDjh-PiJsZsX4PpHx27lp98vqXeoyY9NqX6Rsnukl4V9gBKKPchlkwSf-Cp2Z4uLycGBH6zGvs9PEG_9MNx9l1zbkfzFX3_mHrqfbvv4HAgy-yW0XY4CA9Nb7VaeJOqavt2StuhVU3UTNmit4qMqxo7v0dcQ8zYNDpAmVFgQ9OEgLLmrOk4jGtXaCL4OKIMmW27af_OuydKFdaMQMKFBB1FViZHlQNAQaT7axi7xwocghyRaZwYG8VWcDAiaUuEeEXVAwtQlZfrFtKyXnfF7CTNbQCQS_T1ZNaz5zIuywjcIoKTM2fApaApA_6d_VHTlB9aD2julei-NE0_]--></g></svg>