<?xml version="1.0" encoding="us-ascii" standalone="no"?><svg xmlns="http://www.w3.org/2000/svg" xmlns:xlink="http://www.w3.org/1999/xlink" contentStyleType="text/css" height="592px" preserveAspectRatio="none" style="width:551px;height:592px;background:#FFFFFF;" version="1.1" viewBox="0 0 551 592" width="551px" zoomAndPan="magnify"><defs/><g><rect fill="#2F75C8" height="14" style="stroke:#181818;stroke-width:1.0;" width="10" x="41.5" y="107.4199"/><rect fill="#2F75C8" height="14" style="stroke:#181818;stroke-width:1.0;" width="10" x="41.5" y="166.041"/><rect fill="#2F75C8" height="14" style="stroke:#181818;stroke-width:1.0;" width="10" x="41.5" y="224.6621"/><rect fill="#2F75C8" height="72.6211" style="stroke:#181818;stroke-width:1.0;" width="10" x="41.5" y="283.2832"/><rect fill="#2F75C8" height="131.2422" style="stroke:#181818;stroke-width:1.0;" width="10" x="41.5" y="400.5254"/><rect fill="#2F75C8" height="14" style="stroke:#181818;stroke-width:1.0;" width="10" x="236.5" y="107.4199"/><rect fill="#2F75C8" height="14" style="stroke:#181818;stroke-width:1.0;" width="10" x="236.5" y="166.041"/><rect fill="#2F75C8" height="14" style="stroke:#181818;stroke-width:1.0;" width="10" x="236.5" y="224.6621"/><rect fill="#A08B52" height="14" style="stroke:#181818;stroke-width:1.0;" width="10" x="236.5" y="327.9043"/><rect fill="#76D8FD" height="14" style="stroke:#181818;stroke-width:1.0;" width="10" x="236.5" y="445.1465"/><rect fill="#76D8FD" height="14" style="stroke:#181818;stroke-width:1.0;" width="10" x="236.5" y="503.7676"/><rect fill="#2F75C8" height="72.6211" style="stroke:#181818;stroke-width:1.0;" width="10" x="436.5" y="283.2832"/><rect fill="#A08B52" height="14" style="stroke:#181818;stroke-width:1.0;" width="10" x="441.5" y="327.9043"/><rect fill="#2F75C8" height="131.2422" style="stroke:#181818;stroke-width:1.0;" width="10" x="436.5" y="400.5254"/><rect fill="#76D8FD" height="14" style="stroke:#181818;stroke-width:1.0;" width="10" x="441.5" y="445.1465"/><rect fill="#76D8FD" height="14" style="stroke:#181818;stroke-width:1.0;" width="10" x="441.5" y="503.7676"/><rect fill="none" height="486.2793" style="stroke:#000000;stroke-width:1.5;" width="535" x="10" y="53.4883"/><line style="stroke:#181818;stroke-width:0.5;stroke-dasharray:5.0,5.0;" x1="46" x2="46" y1="36.4883" y2="556.7676"/><line style="stroke:#181818;stroke-width:0.5;stroke-dasharray:5.0,5.0;" x1="241" x2="241" y1="36.4883" y2="556.7676"/><line style="stroke:#181818;stroke-width:0.5;stroke-dasharray:5.0,5.0;" x1="441.5" x2="441.5" y1="36.4883" y2="556.7676"/><rect fill="#E2E2F0" height="30.4883" rx="2.5" ry="2.5" style="stroke:#181818;stroke-width:0.5;" width="53" x="20" y="5"/><text fill="#000000" font-family="sans-serif" font-size="14" lengthAdjust="spacing" textLength="39" x="27" y="25.5352">fistful</text><rect fill="#E2E2F0" height="30.4883" rx="2.5" ry="2.5" style="stroke:#181818;stroke-width:0.5;" width="53" x="20" y="555.7676"/><text fill="#000000" font-family="sans-serif" font-size="14" lengthAdjust="spacing" textLength="39" x="27" y="576.3027">fistful</text><rect fill="#E2E2F0" height="30.4883" rx="2.5" ry="2.5" style="stroke:#181818;stroke-width:0.5;" width="123" x="180" y="5"/><text fill="#000000" font-family="sans-serif" font-size="14" lengthAdjust="spacing" textLength="109" x="187" y="25.5352">machinegun_ha</text><rect fill="#E2E2F0" height="30.4883" rx="2.5" ry="2.5" style="stroke:#181818;stroke-width:0.5;" width="123" x="180" y="555.7676"/><text fill="#000000" font-family="sans-serif" font-size="14" lengthAdjust="spacing" textLength="109" x="187" y="576.3027">machinegun_ha</text><rect fill="#E2E2F0" height="30.4883" rx="2.5" ry="2.5" style="stroke:#181818;stroke-width:0.5;" width="146" x="368.5" y="5"/><text fill="#000000" font-family="sans-serif" font-size="14" lengthAdjust="spacing" textLength="132" x="375.5" y="25.5352">party_management</text><rect fill="#E2E2F0" height="30.4883" rx="2.5" ry="2.5" style="stroke:#181818;stroke-width:0.5;" width="146" x="368.5" y="555.7676"/><text fill="#000000" font-family="sans-serif" font-size="14" lengthAdjust="spacing" textLength="132" x="375.5" y="576.3027">party_management</text><rect fill="#2F75C8" height="14" style="stroke:#181818;stroke-width:1.0;" width="10" x="41.5" y="107.4199"/><rect fill="#2F75C8" height="14" style="stroke:#181818;stroke-width:1.0;" width="10" x="41.5" y="166.041"/><rect fill="#2F75C8" height="14" style="stroke:#181818;stroke-width:1.0;" width="10" x="41.5" y="224.6621"/><rect fill="#2F75C8" height="72.6211" style="stroke:#181818;stroke-width:1.0;" width="10" x="41.5" y="283.2832"/><rect fill="#2F75C8" height="131.2422" style="stroke:#181818;stroke-width:1.0;" width="10" x="41.5" y="400.5254"/><rect fill="#2F75C8" height="14" style="stroke:#181818;stroke-width:1.0;" width="10" x="236.5" y="107.4199"/><rect fill="#2F75C8" height="14" style="stroke:#181818;stroke-width:1.0;" width="10" x="236.5" y="166.041"/><rect fill="#2F75C8" height="14" style="stroke:#181818;stroke-width:1.0;" width="10" x="236.5" y="224.6621"/><rect fill="#A08B52" height="14" style="stroke:#181818;stroke-width:1.0;" width="10" x="236.5" y="327.9043"/><rect fill="#76D8FD" height="14" style="stroke:#181818;stroke-width:1.0;" width="10" x="236.5" y="445.1465"/><rect fill="#76D8FD" height="14" style="stroke:#181818;stroke-width:1.0;" width="10" x="236.5" y="503.7676"/><rect fill="#2F75C8" height="72.6211" style="stroke:#181818;stroke-width:1.0;" width="10" x="436.5" y="283.2832"/><rect fill="#A08B52" height="14" style="stroke:#181818;stroke-width:1.0;" width="10" x="441.5" y="327.9043"/><rect fill="#2F75C8" height="131.2422" style="stroke:#181818;stroke-width:1.0;" width="10" x="436.5" y="400.5254"/><rect fill="#76D8FD" height="14" style="stroke:#181818;stroke-width:1.0;" width="10" x="441.5" y="445.1465"/><rect fill="#76D8FD" height="14" style="stroke:#181818;stroke-width:1.0;" width="10" x="441.5" y="503.7676"/><path d="M10,53.4883 L310,53.4883 L310,60.7988 L300,70.7988 L10,70.7988 L10,53.4883 " fill="#EEEEEE" style="stroke:#000000;stroke-width:1.5;"/><rect fill="none" height="486.2793" style="stroke:#000000;stroke-width:1.5;" width="535" x="10" y="53.4883"/><text fill="#000000" font-family="sans-serif" font-size="13" font-weight="bold" lengthAdjust="spacing" textLength="251" x="25" y="67.0566">FistfulAdmin::CreateDeposit() @fistful</text><text fill="#000000" font-family="sans-serif" font-size="11" font-weight="bold" lengthAdjust="spacing" textLength="215" x="325" y="66.123">[http://iddqd.empayre.com/v1/admin]</text><polygon fill="#C05B98" points="224.5,103.4199,234.5,107.4199,224.5,111.4199,228.5,107.4199" style="stroke:#C05B98;stroke-width:1.0;"/><line style="stroke:#C05B98;stroke-width:1.0;" x1="51.5" x2="230.5" y1="107.4199" y2="107.4199"/><text fill="#000000" font-family="sans-serif" font-size="13" lengthAdjust="spacing" textLength="4" x="58.5" y="87.3672">&#160;</text><text fill="#000000" font-family="sans-serif" font-size="13" font-weight="bold" lengthAdjust="spacing" textLength="75" x="58.5" y="102.6777">Automaton</text><text fill="#000000" font-family="sans-serif" font-size="13" lengthAdjust="spacing" textLength="8" x="133.5" y="102.6777">::</text><text fill="#000000" font-family="sans-serif" font-size="13" font-weight="bold" lengthAdjust="spacing" textLength="80" x="141.5" y="102.6777">GetMachine</text><text fill="#000000" font-family="sans-serif" font-size="13" lengthAdjust="spacing" textLength="8" x="221.5" y="102.6777">()</text><polygon fill="#C05B98" points="57.5,117.4199,47.5,121.4199,57.5,125.4199,53.5,121.4199" style="stroke:#C05B98;stroke-width:1.0;"/><line style="stroke:#C05B98;stroke-width:1.0;stroke-dasharray:2.0,2.0;" x1="51.5" x2="240.5" y1="121.4199" y2="121.4199"/><polygon fill="#C95DB1" points="224.5,162.041,234.5,166.041,224.5,170.041,228.5,166.041" style="stroke:#C95DB1;stroke-width:1.0;"/><line style="stroke:#C95DB1;stroke-width:1.0;" x1="51.5" x2="230.5" y1="166.041" y2="166.041"/><text fill="#000000" font-family="sans-serif" font-size="13" lengthAdjust="spacing" textLength="4" x="58.5" y="145.9883">&#160;</text><text fill="#000000" font-family="sans-serif" font-size="13" font-weight="bold" lengthAdjust="spacing" textLength="75" x="58.5" y="161.2988">Automaton</text><text fill="#000000" font-family="sans-serif" font-size="13" lengthAdjust="spacing" textLength="8" x="133.5" y="161.2988">::</text><text fill="#000000" font-family="sans-serif" font-size="13" font-weight="bold" lengthAdjust="spacing" textLength="80" x="141.5" y="161.2988">GetMachine</text><text fill="#000000" font-family="sans-serif" font-size="13" lengthAdjust="spacing" textLength="8" x="221.5" y="161.2988">()</text><polygon fill="#C95DB1" points="57.5,176.041,47.5,180.041,57.5,184.041,53.5,180.041" style="stroke:#C95DB1;stroke-width:1.0;"/><line style="stroke:#C95DB1;stroke-width:1.0;stroke-dasharray:2.0,2.0;" x1="51.5" x2="240.5" y1="180.041" y2="180.041"/><polygon fill="#16F868" points="224.5,220.6621,234.5,224.6621,224.5,228.6621,228.5,224.6621" style="stroke:#16F868;stroke-width:1.0;"/><line style="stroke:#16F868;stroke-width:1.0;" x1="51.5" x2="230.5" y1="224.6621" y2="224.6621"/><text fill="#000000" font-family="sans-serif" font-size="13" lengthAdjust="spacing" textLength="4" x="58.5" y="204.6094">&#160;</text><text fill="#000000" font-family="sans-serif" font-size="13" font-weight="bold" lengthAdjust="spacing" textLength="75" x="58.5" y="219.9199">Automaton</text><text fill="#000000" font-family="sans-serif" font-size="13" lengthAdjust="spacing" textLength="8" x="133.5" y="219.9199">::</text><text fill="#000000" font-family="sans-serif" font-size="13" font-weight="bold" lengthAdjust="spacing" textLength="80" x="141.5" y="219.9199">GetMachine</text><text fill="#000000" font-family="sans-serif" font-size="13" lengthAdjust="spacing" textLength="8" x="221.5" y="219.9199">()</text><polygon fill="#16F868" points="57.5,234.6621,47.5,238.6621,57.5,242.6621,53.5,238.6621" style="stroke:#16F868;stroke-width:1.0;"/><line style="stroke:#16F868;stroke-width:1.0;stroke-dasharray:2.0,2.0;" x1="51.5" x2="240.5" y1="238.6621" y2="238.6621"/><polygon fill="#A08B52" points="424.5,279.2832,434.5,283.2832,424.5,287.2832,428.5,283.2832" style="stroke:#A08B52;stroke-width:1.0;"/><line style="stroke:#A08B52;stroke-width:1.0;" x1="51.5" x2="430.5" y1="283.2832" y2="283.2832"/><text fill="#000000" font-family="sans-serif" font-size="13" lengthAdjust="spacing" textLength="4" x="58.5" y="263.2305">&#160;</text><text fill="#000000" font-family="sans-serif" font-size="13" font-weight="bold" lengthAdjust="spacing" textLength="124" x="58.5" y="278.541">PartyManagement</text><text fill="#000000" font-family="sans-serif" font-size="13" lengthAdjust="spacing" textLength="8" x="182.5" y="278.541">::</text><text fill="#000000" font-family="sans-serif" font-size="13" font-weight="bold" lengthAdjust="spacing" textLength="80" x="190.5" y="278.541">GetRevision</text><text fill="#000000" font-family="sans-serif" font-size="13" lengthAdjust="spacing" textLength="8" x="270.5" y="278.541">()</text><polygon fill="#972D0F" points="257.5,323.9043,247.5,327.9043,257.5,331.9043,253.5,327.9043" style="stroke:#972D0F;stroke-width:1.0;"/><line style="stroke:#972D0F;stroke-width:1.0;" x1="251.5" x2="440.5" y1="327.9043" y2="327.9043"/><text fill="#000000" font-family="sans-serif" font-size="13" lengthAdjust="spacing" textLength="4" x="263.5" y="307.8516">&#160;</text><text fill="#000000" font-family="sans-serif" font-size="13" font-weight="bold" lengthAdjust="spacing" textLength="75" x="263.5" y="323.1621">Automaton</text><text fill="#000000" font-family="sans-serif" font-size="13" lengthAdjust="spacing" textLength="8" x="338.5" y="323.1621">::</text><text fill="#000000" font-family="sans-serif" font-size="13" font-weight="bold" lengthAdjust="spacing" textLength="80" x="346.5" y="323.1621">GetMachine</text><text fill="#000000" font-family="sans-serif" font-size="13" lengthAdjust="spacing" textLength="8" x="426.5" y="323.1621">()</text><polygon fill="#972D0F" points="424.5,337.9043,434.5,341.9043,424.5,345.9043,428.5,341.9043" style="stroke:#972D0F;stroke-width:1.0;"/><line style="stroke:#972D0F;stroke-width:1.0;stroke-dasharray:2.0,2.0;" x1="241.5" x2="430.5" y1="341.9043" y2="341.9043"/><polygon fill="#A08B52" points="57.5,351.9043,47.5,355.9043,57.5,359.9043,53.5,355.9043" style="stroke:#A08B52;stroke-width:1.0;"/><line style="stroke:#A08B52;stroke-width:1.0;stroke-dasharray:2.0,2.0;" x1="51.5" x2="440.5" y1="355.9043" y2="355.9043"/><polygon fill="#76D8FD" points="424.5,396.5254,434.5,400.5254,424.5,404.5254,428.5,400.5254" style="stroke:#76D8FD;stroke-width:1.0;"/><line style="stroke:#76D8FD;stroke-width:1.0;" x1="51.5" x2="430.5" y1="400.5254" y2="400.5254"/><text fill="#000000" font-family="sans-serif" font-size="13" lengthAdjust="spacing" textLength="4" x="58.5" y="380.4727">&#160;</text><text fill="#000000" font-family="sans-serif" font-size="13" font-weight="bold" lengthAdjust="spacing" textLength="124" x="58.5" y="395.7832">PartyManagement</text><text fill="#000000" font-family="sans-serif" font-size="13" lengthAdjust="spacing" textLength="8" x="182.5" y="395.7832">::</text><text fill="#000000" font-family="sans-serif" font-size="13" font-weight="bold" lengthAdjust="spacing" textLength="161" x="190.5" y="395.7832">ComputeContractTerms</text><text fill="#000000" font-family="sans-serif" font-size="13" lengthAdjust="spacing" textLength="8" x="351.5" y="395.7832">()</text><polygon fill="#467C6F" points="257.5,441.1465,247.5,445.1465,257.5,449.1465,253.5,445.1465" style="stroke:#467C6F;stroke-width:1.0;"/><line style="stroke:#467C6F;stroke-width:1.0;" x1="251.5" x2="440.5" y1="445.1465" y2="445.1465"/><text fill="#000000" font-family="sans-serif" font-size="13" lengthAdjust="spacing" textLength="4" x="263.5" y="425.0938">&#160;</text><text fill="#000000" font-family="sans-serif" font-size="13" font-weight="bold" lengthAdjust="spacing" textLength="75" x="263.5" y="440.4043">Automaton</text><text fill="#000000" font-family="sans-serif" font-size="13" lengthAdjust="spacing" textLength="8" x="338.5" y="440.4043">::</text><text fill="#000000" font-family="sans-serif" font-size="13" font-weight="bold" lengthAdjust="spacing" textLength="80" x="346.5" y="440.4043">GetMachine</text><text fill="#000000" font-family="sans-serif" font-size="13" lengthAdjust="spacing" textLength="8" x="426.5" y="440.4043">()</text><polygon fill="#467C6F" points="424.5,455.1465,434.5,459.1465,424.5,463.1465,428.5,459.1465" style="stroke:#467C6F;stroke-width:1.0;"/><line style="stroke:#467C6F;stroke-width:1.0;stroke-dasharray:2.0,2.0;" x1="241.5" x2="430.5" y1="459.1465" y2="459.1465"/><polygon fill="#63DCDC" points="257.5,499.7676,247.5,503.7676,257.5,507.7676,253.5,503.7676" style="stroke:#63DCDC;stroke-width:1.0;"/><line style="stroke:#63DCDC;stroke-width:1.0;" x1="251.5" x2="440.5" y1="503.7676" y2="503.7676"/><text fill="#000000" font-family="sans-serif" font-size="13" lengthAdjust="spacing" textLength="4" x="263.5" y="483.7148">&#160;</text><text fill="#000000" font-family="sans-serif" font-size="13" font-weight="bold" lengthAdjust="spacing" textLength="75" x="263.5" y="499.0254">Automaton</text><text fill="#000000" font-family="sans-serif" font-size="13" lengthAdjust="spacing" textLength="8" x="338.5" y="499.0254">::</text><text fill="#000000" font-family="sans-serif" font-size="13" font-weight="bold" lengthAdjust="spacing" textLength="80" x="346.5" y="499.0254">GetMachine</text><text fill="#000000" font-family="sans-serif" font-size="13" lengthAdjust="spacing" textLength="8" x="426.5" y="499.0254">()</text><polygon fill="#63DCDC" points="424.5,513.7676,434.5,517.7676,424.5,521.7676,428.5,517.7676" style="stroke:#63DCDC;stroke-width:1.0;"/><line style="stroke:#63DCDC;stroke-width:1.0;stroke-dasharray:2.0,2.0;" x1="241.5" x2="430.5" y1="517.7676" y2="517.7676"/><polygon fill="#76D8FD" points="57.5,527.7676,47.5,531.7676,57.5,535.7676,53.5,531.7676" style="stroke:#76D8FD;stroke-width:1.0;"/><line style="stroke:#76D8FD;stroke-width:1.0;stroke-dasharray:2.0,2.0;" x1="51.5" x2="440.5" y1="531.7676" y2="531.7676"/><!--SRC=[pPBTQy8m5CNV_IiAlkY3LjtwOIaoJUYUX35ySoBHNZMm95rxA_ZVhzBuNMKR5VTwpyt9-ULa6QiqCWAUu2Bzx8U2IyyZCJ042f5AEDRgniiYbutn2Z7oJ9E7uLVO116nJGpDkHBckcsoxU59PRVR65T9onfqtKdF46o-uXAMgPokc6TyI7_MwwUe14CbVNFMyxniyWeup1UtergzmkR8rraIO-TPxGIEHTo3S6AybtVh_Y53upn39OHYbsD16vqmTIqwQ3-OASzG6bFR3bpxmJtf3AKnzLlkmEfaJ16BSJCLJB8b292eiTwsu-5-UWpt3ckUy1puHtJdL-mtBeGiMDVfq5PGmcDVtfepNtrrBL-Sym-f_lRyvuudnUeY6WL5tFIuNQzZKpUWlw-NA16b24H9Z3F_4SGYkK_FpxP3xFlqdCDVxLdBXJthL2NrNCHjFr52oN_ZrgdkyB_rJopZVuCClm40]--></g></svg>